HIERARCHY
ROOT Hips
{
	OFFSET -412.092468 -576.953125 89.101967
	CHANNELS 6 Xposition Yposition Zposition Zrotation Yrotation Xrotation
	JOINT Spine
	{
		OFFSET 0.000000 2.080078 8.814247
		CHANNELS 6 Xposition Yposition Zposition Zrotation Yrotation Xrotation
		JOINT Spine1
		{
			OFFSET 0.000000 0.000000 8.844139
			CHANNELS 6 Xposition Yposition Zposition Zrotation Yrotation Xrotation
			JOINT Spine2
			{
				OFFSET 0.000000 0.000000 11.682266
				CHANNELS 6 Xposition Yposition Zposition Zrotation Yrotation Xrotation
				JOINT Spine3
				{
					OFFSET 0.000000 0.000000 11.746696
					CHANNELS 6 Xposition Yposition Zposition Zrotation Yrotation Xrotation
					JOINT Neck
					{
						OFFSET 0.000000 0.000000 17.658264
						CHANNELS 6 Xposition Yposition Zposition Zrotation Yrotation Xrotation
						JOINT Neck1
						{
							OFFSET 0.000000 0.000000 5.101517
							CHANNELS 6 Xposition Yposition Zposition Zrotation Yrotation Xrotation
							JOINT Head
							{
								OFFSET 0.000000 0.000000 5.101517
								CHANNELS 6 Xposition Yposition Zposition Zrotation Yrotation Xrotation
								JOINT HeadEnd
								{
									OFFSET 0.000000 0.000000 11.655090
									CHANNELS 6 Xposition Yposition Zposition Zrotation Yrotation Xrotation
									End Site
									{
										OFFSET 0.000000 0.000000 0.100006
									}
								}
							}
						}
					}
					JOINT RightShoulder
					{
						OFFSET -2.625397 0.000000 11.175217
						CHANNELS 6 Xposition Yposition Zposition Zrotation Yrotation Xrotation
						JOINT RightArm
						{
							OFFSET 0.000000 0.000000 10.434708
							CHANNELS 6 Xposition Yposition Zposition Zrotation Yrotation Xrotation
							JOINT RightForeArm
							{
								OFFSET 0.000000 0.000000 29.628418
								CHANNELS 6 Xposition Yposition Zposition Zrotation Yrotation Xrotation
								JOINT RightHand
								{
									OFFSET 0.000000 0.000000 22.857605
									CHANNELS 6 Xposition Yposition Zposition Zrotation Yrotation Xrotation
									JOINT RightHandThumb1
									{
										OFFSET -2.867310 -2.944275 3.959564
										CHANNELS 6 Xposition Yposition Zposition Zrotation Yrotation Xrotation
										JOINT RightHandThumb2
										{
											OFFSET 0.000000 0.000000 3.350403
											CHANNELS 6 Xposition Yposition Zposition Zrotation Yrotation Xrotation
											JOINT RightHandThumb3
											{
												OFFSET 0.000000 0.000000 3.756516
												CHANNELS 6 Xposition Yposition Zposition Zrotation Yrotation Xrotation
												JOINT RightHandThumb4
												{
													OFFSET 0.000000 0.000000 3.147339
													CHANNELS 6 Xposition Yposition Zposition Zrotation Yrotation Xrotation
													End Site
													{
														OFFSET 0.000000 0.000000 0.100006
													}
												}
											}
										}
									}
									JOINT RightHandIndex1
									{
										OFFSET -0.086761 -2.345276 10.030899
										CHANNELS 6 Xposition Yposition Zposition Zrotation Yrotation Xrotation
										JOINT RightHandIndex2
										{
											OFFSET 0.000000 0.000000 4.061096
											CHANNELS 6 Xposition Yposition Zposition Zrotation Yrotation Xrotation
											JOINT RightHandIndex3
											{
												OFFSET 0.000000 0.000000 3.248871
												CHANNELS 6 Xposition Yposition Zposition Zrotation Yrotation Xrotation
												JOINT RightHandIndex4
												{
													OFFSET 0.000000 0.000000 2.639709
													CHANNELS 6 Xposition Yposition Zposition Zrotation Yrotation Xrotation
													End Site
													{
														OFFSET 0.000000 0.000000 0.100006
													}
												}
											}
										}
									}
									JOINT RightHandMiddle1
									{
										OFFSET 0.104095 -0.006775 9.502945
										CHANNELS 6 Xposition Yposition Zposition Zrotation Yrotation Xrotation
										JOINT RightHandMiddle2
										{
											OFFSET 0.000000 0.000000 4.568726
											CHANNELS 6 Xposition Yposition Zposition Zrotation Yrotation Xrotation
											JOINT RightHandMiddle3
											{
												OFFSET 0.000000 0.000000 3.654984
												CHANNELS 6 Xposition Yposition Zposition Zrotation Yrotation Xrotation
												JOINT RightHandMiddle4
												{
													OFFSET 0.000000 0.000000 2.741241
													CHANNELS 6 Xposition Yposition Zposition Zrotation Yrotation Xrotation
													End Site
													{
														OFFSET 0.000000 0.000000 0.100006
													}
												}
											}
										}
									}
									JOINT RightHandRing1
									{
										OFFSET 0.086761 2.267456 8.921707
										CHANNELS 6 Xposition Yposition Zposition Zrotation Yrotation Xrotation
										JOINT RightHandRing2
										{
											OFFSET 0.000000 0.000000 4.061096
											CHANNELS 6 Xposition Yposition Zposition Zrotation Yrotation Xrotation
											JOINT RightHandRing3
											{
												OFFSET 0.000000 0.000000 3.654984
												CHANNELS 6 Xposition Yposition Zposition Zrotation Yrotation Xrotation
												JOINT RightHandRing4
												{
													OFFSET 0.000000 0.000000 2.741241
													CHANNELS 6 Xposition Yposition Zposition Zrotation Yrotation Xrotation
													End Site
													{
														OFFSET 0.000000 0.000000 0.100006
													}
												}
											}
										}
									}
									JOINT RightHandPinky1
									{
										OFFSET -0.173492 4.467224 7.976990
										CHANNELS 6 Xposition Yposition Zposition Zrotation Yrotation Xrotation
										JOINT RightHandPinky2
										{
											OFFSET 0.000000 0.000000 3.350403
											CHANNELS 6 Xposition Yposition Zposition Zrotation Yrotation Xrotation
											JOINT RightHandPinky3
											{
												OFFSET 0.000000 0.000000 2.842758
												CHANNELS 6 Xposition Yposition Zposition Zrotation Yrotation Xrotation
												JOINT RightHandPinky4
												{
													OFFSET 0.000000 0.000000 2.639709
													CHANNELS 6 Xposition Yposition Zposition Zrotation Yrotation Xrotation
													End Site
													{
														OFFSET 0.000000 0.000000 0.100006
													}
												}
											}
										}
									}
									JOINT RightForeArmEnd
									{
										OFFSET 0.000000 0.000000 0.000000
										CHANNELS 6 Xposition Yposition Zposition Zrotation Yrotation Xrotation
										End Site
										{
											OFFSET 0.000000 0.000000 0.100006
										}
									}
								}
								JOINT RightArmEnd
								{
									OFFSET 0.000000 0.000000 0.000000
									CHANNELS 6 Xposition Yposition Zposition Zrotation Yrotation Xrotation
									End Site
									{
										OFFSET 0.000000 0.000000 0.100006
									}
								}
							}
						}
					}
					JOINT LeftShoulder
					{
						OFFSET 2.625397 0.000000 11.175217
						CHANNELS 6 Xposition Yposition Zposition Zrotation Yrotation Xrotation
						JOINT LeftArm
						{
							OFFSET 0.000000 0.000000 10.813629
							CHANNELS 6 Xposition Yposition Zposition Zrotation Yrotation Xrotation
							JOINT LeftForeArm
							{
								OFFSET 0.000000 0.000000 28.724777
								CHANNELS 6 Xposition Yposition Zposition Zrotation Yrotation Xrotation
								JOINT LeftHand
								{
									OFFSET 0.644379 0.328857 25.716171
									CHANNELS 6 Xposition Yposition Zposition Zrotation Yrotation Xrotation
									JOINT LeftHandThumb1
									{
										OFFSET 2.867310 -2.944275 3.959564
										CHANNELS 6 Xposition Yposition Zposition Zrotation Yrotation Xrotation
										JOINT LeftHandThumb2
										{
											OFFSET 0.000000 0.000000 3.350403
											CHANNELS 6 Xposition Yposition Zposition Zrotation Yrotation Xrotation
											JOINT LeftHandThumb3
											{
												OFFSET 0.000000 0.000000 3.756516
												CHANNELS 6 Xposition Yposition Zposition Zrotation Yrotation Xrotation
												JOINT LeftHandThumb4
												{
													OFFSET 0.000000 0.000000 3.100006
													CHANNELS 6 Xposition Yposition Zposition Zrotation Yrotation Xrotation
													End Site
													{
														OFFSET 0.000000 0.000000 0.100006
													}
												}
											}
										}
									}
									JOINT LeftHandIndex1
									{
										OFFSET 0.086761 -2.345276 10.030899
										CHANNELS 6 Xposition Yposition Zposition Zrotation Yrotation Xrotation
										JOINT LeftHandIndex2
										{
											OFFSET 0.000000 0.000000 4.061096
											CHANNELS 6 Xposition Yposition Zposition Zrotation Yrotation Xrotation
											JOINT LeftHandIndex3
											{
												OFFSET 0.000000 0.000000 3.248871
												CHANNELS 6 Xposition Yposition Zposition Zrotation Yrotation Xrotation
												JOINT LeftHandIndex4
												{
													OFFSET 0.000000 0.000000 2.639709
													CHANNELS 6 Xposition Yposition Zposition Zrotation Yrotation Xrotation
													End Site
													{
														OFFSET 0.000000 0.000000 0.100006
													}
												}
											}
										}
									}
									JOINT LeftHandMiddle1
									{
										OFFSET -0.104095 -0.006775 9.502945
										CHANNELS 6 Xposition Yposition Zposition Zrotation Yrotation Xrotation
										JOINT LeftHandMiddle2
										{
											OFFSET 0.000000 0.000000 4.568726
											CHANNELS 6 Xposition Yposition Zposition Zrotation Yrotation Xrotation
											JOINT LeftHandMiddle3
											{
												OFFSET 0.000000 0.000000 3.654984
												CHANNELS 6 Xposition Yposition Zposition Zrotation Yrotation Xrotation
												JOINT LeftHandMiddle4
												{
													OFFSET 0.000000 0.000000 2.741241
													CHANNELS 6 Xposition Yposition Zposition Zrotation Yrotation Xrotation
													End Site
													{
														OFFSET 0.000000 0.000000 0.100006
													}
												}
											}
										}
									}
									JOINT LeftHandRing1
									{
										OFFSET -0.086761 2.267456 8.921707
										CHANNELS 6 Xposition Yposition Zposition Zrotation Yrotation Xrotation
										JOINT LeftHandRing2
										{
											OFFSET 0.000000 0.000000 4.061096
											CHANNELS 6 Xposition Yposition Zposition Zrotation Yrotation Xrotation
											JOINT LeftHandRing3
											{
												OFFSET 0.000000 0.000000 3.654984
												CHANNELS 6 Xposition Yposition Zposition Zrotation Yrotation Xrotation
												JOINT LeftHandRing4
												{
													OFFSET 0.000000 0.000000 2.741241
													CHANNELS 6 Xposition Yposition Zposition Zrotation Yrotation Xrotation
													End Site
													{
														OFFSET 0.000000 0.000000 0.100006
													}
												}
											}
										}
									}
									JOINT LeftHandPinky1
									{
										OFFSET 0.173492 4.467224 7.976990
										CHANNELS 6 Xposition Yposition Zposition Zrotation Yrotation Xrotation
										JOINT LeftHandPinky2
										{
											OFFSET 0.000000 0.000000 3.350403
											CHANNELS 6 Xposition Yposition Zposition Zrotation Yrotation Xrotation
											JOINT LeftHandPinky3
											{
												OFFSET 0.000000 0.000000 2.842758
												CHANNELS 6 Xposition Yposition Zposition Zrotation Yrotation Xrotation
												JOINT LeftHandPinky4
												{
													OFFSET 0.000000 0.000000 2.639709
													CHANNELS 6 Xposition Yposition Zposition Zrotation Yrotation Xrotation
													End Site
													{
														OFFSET 0.000000 0.000000 0.100006
													}
												}
											}
										}
									}
									JOINT LeftForeArmEnd
									{
										OFFSET 0.000000 0.000000 0.000000
										CHANNELS 6 Xposition Yposition Zposition Zrotation Yrotation Xrotation
										End Site
										{
											OFFSET 0.000000 0.000000 0.100006
										}
									}
								}
								JOINT LeftArmEnd
								{
									OFFSET 0.000000 0.000000 0.000000
									CHANNELS 6 Xposition Yposition Zposition Zrotation Yrotation Xrotation
									End Site
									{
										OFFSET 0.000000 0.000000 0.100006
									}
								}
							}
						}
					}
				}
			}
		}
	}
	JOINT RightUpLeg
	{
		OFFSET -11.289948 0.000000 0.000000
		CHANNELS 6 Xposition Yposition Zposition Zrotation Yrotation Xrotation
		JOINT RightLeg
		{
			OFFSET 0.000000 0.000000 -38.200329
			CHANNELS 6 Xposition Yposition Zposition Zrotation Yrotation Xrotation
			JOINT RightFoot
			{
				OFFSET 0.000000 0.000000 -39.900856
				CHANNELS 6 Xposition Yposition Zposition Zrotation Yrotation Xrotation
				JOINT RightToeBase
				{
					OFFSET 0.000000 -15.261658 0.000001
					CHANNELS 6 Xposition Yposition Zposition Zrotation Yrotation Xrotation
					JOINT RightToeBaseEnd
					{
						OFFSET 0.000000 -7.370728 0.000000
						CHANNELS 6 Xposition Yposition Zposition Zrotation Yrotation Xrotation
						End Site
						{
							OFFSET 0.000000 0.000000 0.100000
						}
					}
				}
				JOINT RightLegEnd
				{
					OFFSET 0.000000 0.000000 0.000000
					CHANNELS 6 Xposition Yposition Zposition Zrotation Yrotation Xrotation
					End Site
					{
						OFFSET 0.000000 0.000000 0.100000
					}
				}
			}
			JOINT RightUpLegEnd
			{
				OFFSET 0.000000 0.000000 0.000000
				CHANNELS 6 Xposition Yposition Zposition Zrotation Yrotation Xrotation
				End Site
				{
					OFFSET 0.000000 0.000000 0.099998
				}
			}
		}
	}
	JOINT LeftUpLeg
	{
		OFFSET 11.315674 0.000000 0.000000
		CHANNELS 6 Xposition Yposition Zposition Zrotation Yrotation Xrotation
		JOINT LeftLeg
		{
			OFFSET 0.000000 0.000000 -38.200329
			CHANNELS 6 Xposition Yposition Zposition Zrotation Yrotation Xrotation
			JOINT LeftFoot
			{
				OFFSET 0.000000 0.000000 -39.900856
				CHANNELS 6 Xposition Yposition Zposition Zrotation Yrotation Xrotation
				JOINT LeftToeBase
				{
					OFFSET 0.000000 -15.261658 0.000001
					CHANNELS 6 Xposition Yposition Zposition Zrotation Yrotation Xrotation
					JOINT LeftToeBaseEnd
					{
						OFFSET 0.000000 -7.539978 0.000000
						CHANNELS 6 Xposition Yposition Zposition Zrotation Yrotation Xrotation
						End Site
						{
							OFFSET 0.000000 0.000000 0.100000
						}
					}
				}
				JOINT LeftLegEnd
				{
					OFFSET 0.000000 0.000000 0.000000
					CHANNELS 6 Xposition Yposition Zposition Zrotation Yrotation Xrotation
					End Site
					{
						OFFSET 0.000000 0.000000 0.100000
					}
				}
			}
			JOINT LeftUpLegEnd
			{
				OFFSET 0.000000 0.000000 0.000000
				CHANNELS 6 Xposition Yposition Zposition Zrotation Yrotation Xrotation
				End Site
				{
					OFFSET 0.000000 0.000000 0.099998
				}
			}
		}
	}
}
MOTION
Frames: 2
Frame Time: 0.016667
-2.360870 -31.869324 85.707977 7.766502 7.066680 -21.377182 -0.000008 2.080046 8.814247 -2.306212 -4.004015 9.101434 0.000014 -0.000015 8.844136 -0.377169 1.981602 4.124596 0.000016 -0.000004 11.682262 -11.214663 -3.732552 12.231348 0.000011 0.000023 11.746685 -4.671435 -3.371408 7.898910 0.000010 -0.000002 17.658268 2.914637 0.393955 11.963889 -0.000001 -0.000014 5.101505 4.424105 0.462494 -0.880886 0.000014 -0.000011 5.101513 -1.486844 2.703456 -20.984161 0.000001 -0.000000 11.655077 0.000000 0.000000 -0.000000 -2.625381 -0.000024 11.175204 9.774032 -95.309990 0.154678 -0.000023 0.000019 10.434677 -41.773348 -42.153619 47.761320 0.000021 -0.000023 29.628412 11.724644 0.138193 31.112410 -0.000080 0.000068 22.857601 11.871468 -14.049858 -4.936237 -2.867317 -2.944275 3.959572 31.604563 -17.443451 51.240458 0.000008 0.000000 3.350391 -13.067168 8.582420 -23.536798 0.000011 0.000000 3.756508 -8.692337 6.542657 -16.108639 0.000024 0.000017 3.147349 -0.000001 0.000000 -0.000004 -0.086761 -2.345253 10.030914 -11.136497 -12.647571 15.576144 0.000010 -0.000003 4.061090 0.365143 -10.412867 1.479923 0.000009 0.000003 3.248857 -0.134863 -10.412848 1.479921 0.000006 0.000004 2.639711 0.000002 0.000000 -0.000000 0.104088 -0.006786 9.502991 -5.782992 -11.975264 10.072138 -0.000033 0.000005 4.568728 0.467058 -8.920960 0.470763 0.000005 -0.000010 3.654966 -0.033444 -8.921262 0.470839 -0.000000 0.000006 2.741249 -0.000001 -0.000001 0.000000 0.086754 2.267443 8.921696 2.633022 -11.254151 5.228409 0.000012 0.000028 4.061090 -0.968201 -7.670510 -0.472002 -0.000003 0.000014 3.654974 0.034251 -7.670525 -0.472333 0.000005 -0.000009 2.741227 0.000001 0.000001 -0.000001 -0.173500 4.467224 7.976979 11.604216 -8.781708 -0.726377 0.000010 -0.000021 3.350421 -1.936920 -6.082856 -1.187016 0.000006 -0.000003 2.842752 0.063059 -6.083263 -1.186950 -0.000005 0.000001 2.639690 -0.000001 0.000001 0.000001 0.000016 0.000005 0.000031 -0.000001 -0.000001 -0.000000 -0.000014 -0.000003 -0.000003 -0.000000 0.000002 0.000001 2.625387 -0.000010 11.175218 -10.660066 88.847586 0.532753 0.000031 0.000015 10.813629 54.007040 46.213999 49.491766 0.000025 0.000038 28.724815 -8.620682 1.329520 46.067191 0.644320 0.328854 25.716217 -8.479172 20.681157 -22.895878 2.867268 -2.944260 3.959579 -31.831362 15.890543 53.646867 0.000004 -0.000019 3.350418 9.650588 -7.050004 -17.762038 -0.000006 -0.000015 3.756527 6.465109 -5.219214 -12.193531 0.000010 0.000003 3.099991 -0.000000 -0.000001 -0.000001 0.086769 -2.345272 10.030907 -7.745890 2.637164 -8.447371 0.000042 -0.000000 4.061097 0.490963 2.712401 -0.381433 0.000011 -0.000005 3.248889 -0.009038 2.711712 -0.381439 0.000012 0.000004 2.639750 -0.000001 0.000000 0.000001 -0.104113 -0.006742 9.502968 -2.598394 4.679516 -6.346959 0.000010 0.000022 4.568759 0.493078 3.585732 -0.188424 -0.000003 -0.000056 3.654981 -0.006822 3.591091 -0.188617 -0.000006 0.000012 2.741240 -0.000002 -0.000001 -0.000001 -0.086781 2.267445 8.921711 6.711090 12.171886 -3.534132 -0.000011 0.000021 4.061090 -0.961864 8.413950 0.518342 0.000008 0.000019 3.655006 0.038122 8.413874 0.518373 -0.000007 0.000007 2.741236 -0.000001 0.000001 -0.000000 0.173508 4.467182 7.976989 16.901180 18.244318 0.008115 -0.000008 0.000004 3.350428 -1.734018 12.396456 2.448682 0.000006 -0.000044 2.842773 0.265971 12.396468 2.448703 0.000019 0.000011 2.639716 -0.000001 -0.000001 0.000001 -0.000004 -0.000006 0.000016 0.000001 0.000000 0.000000 0.000012 -0.000002 -0.000008 0.000002 -0.000001 0.000002 -11.289983 0.000051 0.000027 -12.942258 -3.990611 19.531034 0.000037 0.000089 -38.200310 -0.829807 0.271292 18.133850 -0.000007 0.000025 -39.900837 -15.494153 2.684800 8.032843 0.000044 -15.261614 -0.000005 1.463973 0.428736 -14.469404 0.000019 -7.370792 0.000000 0.000001 0.000000 0.000000 0.000041 0.000116 0.000001 0.000001 0.000000 0.000003 0.000031 0.000060 0.000006 0.000001 -0.000000 0.000002 11.315657 0.000083 0.000000 -8.226617 -19.427288 8.400609 -0.000011 -0.000028 -38.200344 1.477719 -0.894947 31.193126 -0.000013 0.000011 -39.900848 4.695744 10.621057 12.046295 0.000038 -15.261690 0.000034 -1.350362 -1.809556 -18.210594 0.000011 -7.539980 -0.000001 0.000000 -0.000000 0.000000 0.000033 0.000062 -0.000002 -0.000000 0.000000 -0.000001 -0.000026 0.000004 -0.000003 -0.000001 0.000001 -0.000001 
-2.818726 -32.002625 85.646347 8.337090 6.983877 -21.552027 -0.000010 2.080048 8.814245 -2.651320 -4.122236 8.672971 0.000011 -0.000015 8.844146 -0.319810 1.928880 4.146165 0.000016 0.000004 11.682255 -10.814367 -3.643406 12.540403 -0.000014 -0.000019 11.746691 -4.449875 -3.090142 7.848274 -0.000007 -0.000074 17.658239 2.635749 0.613414 12.100395 0.000001 -0.000015 5.101530 3.994884 0.494364 -0.826935 0.000014 -0.000012 5.101496 -1.517732 2.516117 -20.989528 -0.000003 0.000000 11.655091 -0.000000 0.000000 -0.000000 -2.625401 0.000010 11.175208 9.887698 -95.402429 0.163315 0.000042 0.000015 10.434692 -43.285415 -43.966669 48.252893 0.000000 0.000000 29.628397 12.471230 0.085990 31.837465 -0.000092 0.000010 22.857609 13.739689 -15.989317 -4.861570 -2.867325 -2.944305 3.959595 31.623892 -17.268293 51.506590 0.000008 -0.000023 3.350349 -12.679393 8.429116 -22.889738 0.000006 0.000000 3.756516 -8.440159 6.403171 -15.670539 0.000004 0.000004 3.147327 -0.000001 -0.000000 -0.000001 -0.086765 -2.345291 10.030907 -11.106208 -12.495643 15.092398 -0.000004 -0.000028 4.061090 0.369178 -10.257946 1.457437 -0.000005 -0.000024 3.248841 -0.130822 -10.258115 1.457430 -0.000000 0.000003 2.639682 0.000000 0.000000 -0.000002 0.104084 -0.006800 9.502968 -5.768896 -11.906843 9.656315 -0.000004 0.000015 4.568743 0.463791 -8.854816 0.467790 -0.000006 0.000029 3.654981 -0.036218 -8.854827 0.467798 0.000008 -0.000003 2.741241 0.000001 -0.000000 -0.000002 0.086773 2.267481 8.921707 2.609161 -11.385763 4.916152 -0.000013 -0.000013 4.061094 -0.967445 -7.780919 -0.478862 -0.000008 -0.000024 3.654984 0.034811 -7.780959 -0.479156 -0.000043 0.000003 2.741258 -0.000000 0.000000 0.000000 -0.173508 4.467249 7.976983 11.556260 -9.103171 -0.804854 -0.000027 0.000007 3.350417 -1.943639 -6.314092 -1.231147 -0.000010 0.000005 2.842745 0.067979 -6.314124 -1.232438 -0.000028 -0.000011 2.639698 0.000001 0.000001 -0.000001 0.000020 0.000007 0.000031 0.000000 0.000001 0.000002 -0.000024 0.000009 -0.000007 -0.000002 -0.000001 -0.000001 2.625390 0.000005 11.175232 -9.832909 89.433042 1.088377 -0.000008 0.000009 10.813622 52.464940 44.065744 48.607868 0.000057 -0.000008 28.724796 -7.444722 1.324556 45.756728 0.644320 0.328823 25.716187 -7.893120 21.595257 -22.852054 2.867355 -2.944275 3.959602 -31.770755 16.230937 53.109884 -0.000015 -0.000015 3.350410 10.395031 -7.419855 -19.035418 0.000006 0.000069 3.756527 6.951670 -5.526325 -13.058243 -0.000012 0.000020 3.100007 -0.000002 -0.000000 0.000001 0.086750 -2.345270 10.030872 -7.354839 4.974831 -8.667313 0.000009 -0.000007 4.061087 0.476593 4.362503 -0.614293 -0.000034 -0.000005 3.248901 -0.023411 4.362491 -0.614316 0.000001 -0.000027 2.639706 0.000004 0.000002 -0.000001 -0.104102 -0.006791 9.502968 -2.224925 6.853113 -6.361877 -0.000007 -0.000020 4.568730 0.487943 5.131022 -0.269626 -0.000007 -0.000009 3.654985 -0.012087 5.131001 -0.269615 0.000014 0.000015 2.741230 -0.000003 -0.000003 0.000001 -0.086754 2.267467 8.921711 7.115868 14.110846 -3.027794 -0.000006 -0.000022 4.061097 -0.947949 9.814260 0.606210 0.000016 -0.000024 3.655016 0.052048 9.814272 0.606214 -0.000023 -0.000011 2.741256 0.000001 -0.000001 0.000001 0.173500 4.467196 7.977017 17.362520 19.705690 1.094952 0.000002 -0.000003 3.350401 -1.680567 13.557940 2.686709 0.000013 0.000010 2.842783 0.319416 13.558150 2.686735 -0.000022 -0.000006 2.639717 0.000000 -0.000002 0.000001 0.000015 0.000025 0.000022 -0.000004 0.000000 -0.000000 -0.000006 -0.000019 0.000007 0.000002 0.000003 -0.000000 -11.289960 -0.000004 -0.000002 -13.331609 -4.115567 19.781094 0.000035 0.000056 -38.200321 -0.837667 0.278205 18.371061 0.000031 0.000078 -39.900856 -15.898592 3.144728 7.502492 0.000034 -15.261713 -0.000007 1.410004 0.423204 -14.279781 0.000042 -7.370782 -0.000000 -0.000001 0.000000 -0.000001 0.000043 0.000064 -0.000003 -0.000000 0.000001 0.000002 0.000034 0.000058 -0.000007 0.000001 -0.000000 -0.000001 11.315666 0.000085 -0.000008 -7.667474 -19.847066 8.282235 -0.000003 0.000061 -38.200314 1.514642 -0.911338 31.027883 0.000004 0.000107 -39.900852 4.075380 10.666744 12.326677 -0.000000 -15.261684 0.000010 -1.338777 -1.801932 -18.265650 -0.000009 -7.540043 0.000001 0.000001 -0.000000 0.000001 0.000005 0.000111 0.000001 0.000002 0.000000 -0.000000 -0.000015 0.000003 -0.000005 -0.000001 -0.000000 0.000002 
